<svg width="140" height="140" viewBox="0 0 140 140" fill="none" xmlns="http://www.w3.org/2000/svg">
<path d="M122.5 107.917C122.5 115.973 115.973 122.5 107.917 122.5H32.0833C24.0304 122.5 17.5 115.973 17.5 107.917V32.0833C17.5 24.0275 24.0304 17.5 32.0833 17.5H107.917C115.973 17.5 122.5 24.0275 122.5 32.0833V107.917Z" fill="#673AB7"/>
<path d="M96.3375 74.6667C94.4417 72.0417 91.7 70.2333 88.1708 69.2708C88.1708 69.2708 91.1458 68.1917 93.8292 64.1667C95.4333 61.6 96.25 58.5083 96.25 54.8917C96.25 48.6208 93.975 43.8083 89.425 40.5125C84.875 37.2167 79.7417 35 71.0208 35H43.75V105H74.1708C82.425 104.942 88.6375 103.163 92.8667 99.75C97.0667 96.2792 99.1667 91.1458 99.1667 84.2917C99.1667 80.5 98.2333 77.2917 96.3375 74.6667ZM61.25 46.6667C61.25 46.6667 73.4125 46.6667 73.6458 46.6667C78.0792 46.6667 81.6667 50.2542 81.6667 54.6875C81.6667 59.1208 78.0792 62.7083 73.6458 62.7083C73.4125 62.7083 61.25 62.7083 61.25 62.7083V46.6667ZM75.8333 93.3333H61.25V75.8333H75.8333C80.675 75.8333 84.5833 79.7417 84.5833 84.5833C84.5833 89.425 80.675 93.3333 75.8333 93.3333Z" fill="white"/>
</svg>
