<svg width="92" height="92" viewBox="0 0 92 92" fill="none" xmlns="http://www.w3.org/2000/svg">
<path d="M78.5833 9.58331H13.4167L19.1667 74.75L46 82.4166L72.8333 74.75L78.5833 9.58331Z" fill="#0277BD"/>
<path d="M46 15.3333V76.475L67.4667 70.3416L72.2583 15.3333H46Z" fill="#039BE5"/>
<path d="M63.4417 24.9167H46V32.5834H55.3917L54.8167 40.25H46V47.9167H54.4333L53.8583 56.5417L46 59.225V67.275L61.1417 62.2917L62.4833 40.25L63.4417 24.9167Z" fill="white"/>
<path d="M46 24.9167V32.5834H28.9417L28.3667 24.9167H46ZM37.1833 40.25L37.5667 47.9167H46V40.25H37.1833ZM37.95 51.75H30.2833L30.8583 62.2917L46 67.275V59.225L38.1417 56.5417L37.95 51.75Z" fill="#EEEEEE"/>
</svg>
