<svg width="140" height="140" viewBox="0 0 140 140" fill="none" xmlns="http://www.w3.org/2000/svg">
<path d="M123.083 64.4583L75.5416 16.9166C74.0832 15.4583 72.0416 14.5833 69.9999 14.5833C67.9582 14.5833 65.9166 15.4583 64.4583 16.9166L54.2499 27.125L66.2083 39.0833C67.3749 38.5 68.5416 38.2083 69.9999 38.2083C74.9582 38.2083 78.7499 42 78.7499 46.9583C78.7499 48.4167 78.4583 49.5833 77.8749 50.75L89.5416 62.4166C90.7083 61.8333 91.8749 61.5417 93.3332 61.5417C98.2916 61.5417 102.083 65.3333 102.083 70.2917C102.083 75.25 98.2916 79.0417 93.3332 79.0417C88.3749 79.0417 84.5833 75.25 84.5833 70.2917C84.5833 68.8333 84.8749 67.6666 85.4582 66.5L73.7916 54.8333C73.4999 54.8333 73.2082 55.125 72.9166 55.125V85.4583C76.4166 86.625 78.7499 89.8333 78.7499 93.625C78.7499 98.5833 74.9582 102.375 69.9999 102.375C65.0416 102.375 61.2499 98.5833 61.2499 93.625C61.2499 89.8333 63.5832 86.625 67.0832 85.4583V54.8333C63.5832 53.6666 61.2499 50.4583 61.2499 46.6666C61.2499 45.2083 61.5416 44.0416 62.1249 42.875L50.1666 30.9166L16.9166 64.4583C15.4583 65.9167 14.5833 67.9583 14.5833 70C14.5833 72.0417 15.4583 74.0833 16.9166 75.5417L64.4583 123.083C65.9166 124.542 67.9582 125.417 69.9999 125.417C72.0416 125.417 74.0832 124.542 75.5416 123.083L123.083 75.5417C124.542 74.0833 125.417 72.0417 125.417 70C125.417 67.9583 124.542 65.9167 123.083 64.4583Z" fill="#F4511E"/>
</svg>
