<svg width="92" height="92" viewBox="0 0 92 92" fill="none" xmlns="http://www.w3.org/2000/svg">
<path d="M78.5833 9.58331H13.4167L19.1667 74.75L46 82.4166L72.8333 74.75L78.5833 9.58331Z" fill="#E65100"/>
<path d="M46 15.3333V76.475L67.4667 70.3416L72.2583 15.3333H46Z" fill="#FF6D00"/>
<path d="M46 47.9167V40.25H62.4833L61.1417 62.2917L46 67.275V59.225L53.8583 56.5417L54.4333 47.9167H46ZM63.0583 32.5834L63.6333 24.9167H46V32.5834H63.0583Z" fill="white"/>
<path d="M46 59.225V67.275L30.8583 62.2917L30.0917 51.75H37.7583L38.1417 56.5417L46 59.225ZM36.6083 32.5834H46V24.9167H28.5583L29.9 47.9167H46V40.25H37.1833L36.6083 32.5834Z" fill="#EEEEEE"/>
</svg>
