<svg width="92" height="92" viewBox="0 0 92 92" fill="none" xmlns="http://www.w3.org/2000/svg">
<path d="M11.5 80.5V11.5H80.5V80.5H11.5Z" fill="#FFD600"/>
<path d="M56.6145 63.1484C57.9408 65.3028 59.3822 67.367 62.4354 67.367C64.9999 67.367 66.3454 66.0924 66.3454 64.3291C66.3454 62.2189 64.9539 61.4694 62.1326 60.2409L60.5858 59.5815C56.1219 57.6879 53.153 55.315 53.153 50.3029C53.153 45.6838 56.6893 42.1686 62.215 42.1686C66.1499 42.1686 68.977 43.5314 71.0163 47.1002L66.1978 50.1803C65.1379 48.2866 63.9918 47.541 62.215 47.541C60.4018 47.541 59.2538 48.6853 59.2538 50.1803C59.2538 52.0279 60.4038 52.7754 63.0583 53.9197L64.6051 54.579C69.8663 56.8196 72.8333 59.1081 72.8333 64.2524C72.8333 69.7954 68.4557 72.8334 62.5792 72.8334C56.8311 72.8334 53.567 69.9488 51.75 66.378L56.6145 63.1484ZM34.408 63.3056C35.3778 65.0421 36.8518 66.378 38.9716 66.378C40.9994 66.378 42.1667 65.5769 42.1667 62.4623V42.1667H48.5549V63.4436C48.5549 69.897 44.8117 72.8334 39.3453 72.8334C34.4061 72.8334 30.8411 69.4869 29.3883 66.378L34.408 63.3056Z" fill="#000001"/>
</svg>
