<svg width="140" height="140" viewBox="0 0 140 140" fill="none" xmlns="http://www.w3.org/2000/svg">
<path d="M116.279 75.705C111.793 75.7283 107.908 76.8046 104.653 78.4117C103.463 76.0346 102.255 73.9433 102.054 72.3888C101.818 70.5746 101.544 69.4896 101.83 67.3283C102.115 65.1671 103.367 62.1046 103.349 61.8742C103.332 61.6438 103.069 60.5442 100.482 60.5238C97.8951 60.5063 95.6813 61.0225 95.4217 61.705C95.1621 62.3875 94.6634 63.9246 94.3542 65.5288C93.9021 67.8738 89.1888 76.2417 86.5142 80.6167C85.6392 78.9075 84.8955 77.4025 84.7409 76.2125C84.5046 74.3983 84.2305 73.3134 84.5163 71.1521C84.8021 68.9908 86.0534 65.9283 86.0359 65.6979C86.0184 65.4675 85.7559 64.3679 83.1688 64.3475C80.5817 64.33 78.368 64.8463 78.1084 65.5288C77.8488 66.2113 77.5688 67.8067 77.0409 69.3525C76.5101 70.8954 70.248 84.8517 68.6059 88.4713C67.7688 90.3146 67.0426 91.7963 66.5292 92.8054C66.5263 92.8025 66.5263 92.7996 66.5263 92.7996C66.5263 92.7996 66.4942 92.8667 66.4417 92.9804C66.0013 93.8409 65.7417 94.3163 65.7417 94.3163C65.7417 94.3163 65.7446 94.3221 65.7505 94.3338C65.4005 94.9667 65.0271 95.5529 64.8434 95.5529C64.7151 95.5529 64.4555 93.87 64.8988 91.56C65.8321 86.7183 68.0692 79.17 68.0488 78.9075C68.0371 78.7733 68.4659 77.4579 66.5876 76.7696C64.7617 76.1017 64.1113 77.2159 63.9451 77.2188C63.7846 77.2217 63.6651 77.6125 63.6651 77.6125C63.6651 77.6125 65.698 69.1221 59.7859 69.1221C56.0876 69.1221 50.9659 73.1675 48.443 76.8338C46.8505 77.7029 43.4409 79.5638 39.8271 81.55C38.4388 82.3142 37.0213 83.0929 35.6767 83.8338C35.5863 83.7317 35.493 83.6325 35.3996 83.5304C28.2276 75.88 14.9742 70.4696 15.5342 60.1825C15.7384 56.4434 17.0392 46.5967 41.0055 34.6558C60.6376 24.8733 76.3555 27.5654 79.0709 33.53C82.9501 42.0554 70.6709 57.8959 50.2834 60.1825C42.5163 61.0546 38.4242 58.0417 37.4063 56.9217C36.3359 55.7404 36.1755 55.6879 35.7759 55.9096C35.1255 56.2713 35.5367 57.3125 35.7759 57.9338C36.3855 59.5175 38.8821 62.3263 43.1405 63.7263C46.8884 64.9571 56.0088 65.6308 67.0367 61.3638C79.3917 56.5863 89.0371 43.2921 86.2021 32.1825C83.3205 20.8833 64.5838 17.1675 46.8505 23.4675C36.2834 27.2183 24.8588 33.1042 16.6426 40.7867C6.87464 49.9217 5.31714 57.8754 5.95881 61.1975C8.23964 73.0042 24.5117 80.6925 31.0276 86.3888C30.7067 86.5667 30.4034 86.7329 30.1292 86.8846C26.8626 88.5004 14.458 94.9929 11.3546 101.85C7.83422 109.629 11.9146 115.211 14.6155 115.964C22.9834 118.291 31.5701 114.103 36.1871 107.22C40.8013 100.339 40.2384 91.3763 38.1209 87.2871C38.0946 87.2375 38.0655 87.1879 38.0392 87.1354C38.8821 86.6367 39.7426 86.1292 40.5942 85.6275C42.2567 84.6504 43.8901 83.7404 45.3046 82.9704C44.5113 85.1404 43.9309 87.745 43.6305 91.5046C43.2746 95.9204 45.0859 101.628 47.4542 103.874C48.4984 104.863 49.7526 104.886 50.5459 104.886C53.3021 104.886 54.5592 102.594 55.9446 99.8813C57.6421 96.5563 59.1501 92.6829 59.1501 92.6829C59.1501 92.6829 57.2601 103.142 62.4109 103.142C64.2892 103.142 66.1763 100.707 67.0192 99.4671C67.0221 99.4817 67.0221 99.4875 67.0221 99.4875C67.0221 99.4875 67.0717 99.4059 67.168 99.2454C67.3634 98.9479 67.4742 98.7584 67.4742 98.7584C67.4742 98.7584 67.4771 98.7379 67.483 98.7029C68.2384 97.3933 69.9126 94.4067 72.4209 89.4804C75.6642 83.1163 78.7734 75.1421 78.7734 75.1421C78.7734 75.1421 79.0621 77.0904 80.0101 80.3163C80.5671 82.2121 81.7513 84.3092 82.6876 86.3217C81.9351 87.3659 81.4742 87.9638 81.4742 87.9638C81.4742 87.9638 81.4771 87.9754 81.4859 87.9958C80.8851 88.795 80.2113 89.6554 79.5055 90.4954C76.9446 93.5434 73.8967 97.0258 73.4884 98.0292C73.0071 99.2133 73.1209 100.083 74.0513 100.785C74.7309 101.296 75.9384 101.378 77.2013 101.293C79.5026 101.138 81.1184 100.567 81.9176 100.22C83.163 99.7792 84.6126 99.0879 85.9717 98.0875C88.483 96.2413 89.9967 93.6017 89.8509 90.1017C89.7692 88.1738 89.1567 86.2634 88.378 84.4608C88.6055 84.1342 88.833 83.8017 89.0634 83.4692C93.0213 77.6825 96.0926 71.3242 96.0926 71.3242C96.0926 71.3242 96.3813 73.2725 97.3292 76.4983C97.8076 78.1288 98.7555 79.9109 99.6071 81.655C95.8855 84.6796 93.5784 88.1942 92.7763 90.4984C91.2946 94.7625 92.4555 96.6934 94.6313 97.1338C95.6171 97.3321 97.0113 96.88 98.0584 96.4367C99.3621 96.005 100.928 95.2846 102.393 94.2083C104.904 92.3621 107.319 89.7779 107.173 86.2809C107.106 84.6883 106.674 83.1075 106.088 81.5909C109.244 80.2754 113.327 79.5463 118.53 80.1529C129.693 81.4567 131.88 88.4246 131.463 91.3413C131.043 94.2579 128.704 95.8621 127.919 96.3463C127.138 96.8304 126.898 96.9996 126.963 97.3584C127.059 97.8804 127.42 97.8629 128.088 97.7492C129.007 97.5946 133.948 95.3779 134.161 89.9938C134.426 83.1513 127.878 75.6438 116.279 75.705ZM30.2459 104.708C26.5476 108.742 21.3851 110.265 19.1684 108.981C16.7767 107.596 17.7246 101.658 22.2601 97.3759C25.0251 94.7684 28.5951 92.365 30.9634 90.8863C31.503 90.5625 32.2934 90.0871 33.2559 89.5096C33.4163 89.4192 33.5067 89.3696 33.5067 89.3696L33.5038 89.3638C33.6905 89.2529 33.8801 89.1392 34.0755 89.0196C35.7292 95.1125 34.128 100.476 30.2459 104.708ZM57.1813 86.4004C55.8951 89.5388 53.2001 97.5713 51.558 97.1396C50.1492 96.7692 49.2917 90.6646 51.278 84.6563C52.2755 81.6317 54.4105 78.0179 55.6646 76.615C57.683 74.3575 59.9055 73.6196 60.4451 74.5354C61.1305 75.7021 57.9892 84.4317 57.1813 86.4004ZM79.4326 97.0171C78.8871 97.3029 78.3855 97.4809 78.1551 97.3438C77.983 97.2417 78.3796 96.8654 78.3796 96.8654C78.3796 96.8654 81.1621 93.87 82.2588 92.5079C82.8976 91.7146 83.6355 90.7725 84.4405 89.7225C84.4463 89.8275 84.4492 89.9325 84.4492 90.0346C84.4434 93.6221 80.9784 96.0429 79.4326 97.0171ZM96.5738 93.1088C96.1655 92.82 96.2355 91.8838 97.5742 88.9642C98.0992 87.8179 99.3009 85.89 101.383 84.0467C101.625 84.805 101.771 85.5313 101.768 86.2079C101.742 90.7229 98.5221 92.4088 96.5738 93.1088Z" fill="#F06292"/>
</svg>
